Coordinates
version=1
nRows=13
nColumns=34
inDegrees=no

Units are S.I. units (second, meters, Newtons, ...)
If the header above contains a line with 'inDegrees', this indicates whether rotational values are in degrees (yes) or radians (no).

endheader
time	pelvis_tilt	pelvis_list	pelvis_rotation	pelvis_tx	pelvis_ty	pelvis_tz	hip_flexion_r	hip_adduction_r	hip_rotation_r	knee_angle_r	ankle_angle_r	subtalar_angle_r	mtp_angle_r	hip_flexion_l	hip_adduction_l	hip_rotation_l	knee_angle_l	ankle_angle_l	subtalar_angle_l	mtp_angle_l	lumbar_extension	lumbar_bending	lumbar_rotation	arm_flex_r	arm_add_r	arm_rot_r	elbow_flex_r	pro_sup_r	arm_flex_l	arm_add_l	arm_rot_l	elbow_flex_l	pro_sup_l
1.71	-0.415873	0.0155978	-0.0717618	-0.345115	0.789473	-0.565429	1.52902	-0.145019	0.159729	1.62042	0.30598	-0.302374	-0.019656	1.46686	-0.181868	0.178778	1.6576	0.343551	-0.38335	-0.019656	-0.639735	-0.0511094	0.0417844	1.80984	-0.375572	0.49897	1.78525	1.83233	1.78065	-0.225092	0.615645	1.70382	1.91426
1.72	-0.417452	0.0136933	-0.0713322	-0.34178	0.800643	-0.565368	1.50408	-0.139823	0.157297	1.58971	0.298834	-0.31624	-0.019656	1.44181	-0.173999	0.181082	1.62517	0.336891	-0.400327	-0.019656	-0.620999	-0.0486754	0.0462462	1.83796	-0.390674	0.524584	1.78671	1.80112	1.81284	-0.226834	0.628828	1.68477	1.89244
1.73	-0.417035	0.0112552	-0.0714555	-0.338237	0.812451	-0.565227	1.47555	-0.133788	0.154873	1.55691	0.291914	-0.329761	-0.019656	1.41358	-0.167446	0.183628	1.59094	0.330376	-0.416392	-0.019656	-0.603645	-0.04611	0.0508912	1.87133	-0.404949	0.552172	1.78425	1.76529	1.8499	-0.228418	0.643129	1.66088	1.86783
1.74	-0.414752	0.00836764	-0.072105	-0.334441	0.824851	-0.56501	1.4437	-0.127113	0.152414	1.52212	0.285226	-0.342779	-0.019656	1.38244	-0.162425	0.186158	1.55507	0.323893	-0.431331	-0.019656	-0.587467	-0.043368	0.0554824	1.90957	-0.417719	0.581716	1.77758	1.72683	1.89069	-0.230138	0.658335	1.6332	1.84119
1.75	-0.410915	0.0051242	-0.0731491	-0.330355	0.837795	-0.564731	1.409	-0.120155	0.149786	1.48545	0.278722	-0.355163	-0.019656	1.34885	-0.159065	0.188385	1.5177	0.317321	-0.444977	-0.019656	-0.572071	-0.040352	0.0597512	1.9521	-0.428626	0.613195	1.76679	1.68823	1.93394	-0.232419	0.674159	1.6033	1.81359
1.76	-0.40593	0.00160344	-0.074381	-0.325948	0.851248	-0.564407	1.372	-0.113381	0.146755	1.44698	0.272278	-0.366807	-0.019656	1.31336	-0.157445	0.190009	1.47885	0.310546	-0.457189	-0.019656	-0.556984	-0.0369336	0.0634531	1.99816	-0.437716	0.646536	1.75249	1.6517	1.9783	-0.235799	0.690282	1.57318	1.78619
1.77	-0.400203	-0.00213762	-0.0755652	-0.321181	0.865203	-0.564053	1.33318	-0.107297	0.143013	1.4067	0.26567	-0.377592	-0.019656	1.27642	-0.157629	0.190722	1.43846	0.303478	-0.46781	-0.019656	-0.541746	-0.0329904	0.0664058	2.04673	-0.445477	0.681523	1.73591	1.61886	2.02246	-0.240929	0.706365	1.54516	1.76022
1.78	-0.394076	-0.00604665	-0.07648	-0.316014	0.879672	-0.563682	1.29288	-0.102385	0.138235	1.36451	0.258552	-0.387339	-0.019656	1.23831	-0.159669	0.190181	1.3963	0.296031	-0.476634	-0.019656	-0.525968	-0.0284503	0.0684909	2.0965	-0.452802	0.717688	1.71877	1.59072	2.06512	-0.248552	0.722052	1.52162	1.73689
1.79	-0.38777	-0.0100505	-0.0769484	-0.31041	0.894694	-0.563304	1.25123	-0.0990554	0.132132	1.32019	0.250443	-0.395729	-0.019656	1.19902	-0.163591	0.187977	1.35191	0.288077	-0.483349	-0.019656	-0.50936	-0.0233278	0.0696336	2.1458	-0.460911	0.754229	1.70323	1.56786	2.10508	-0.259471	0.736991	1.50482	1.71746
1.8	-0.381346	-0.0140427	-0.0768639	-0.304324	0.910333	-0.562936	1.2081	-0.0976136	0.124477	1.27335	0.240714	-0.402218	-0.019656	1.15823	-0.169367	0.183599	1.30465	0.279377	-0.48748	-0.019656	-0.491741	-0.0177368	0.0697862	2.19266	-0.471247	0.790007	1.69156	1.55072	2.14123	-0.274509	0.750914	1.49659	1.70312
1.81	-0.374693	-0.0178932	-0.0762147	-0.297699	0.92669	-0.562594	1.16307	-0.0982117	0.115097	1.22338	0.228574	-0.40597	-0.019656	1.11523	-0.176901	0.176416	1.25361	0.269495	-0.488323	-0.019656	-0.473032	-0.0118774	0.0689356	2.23494	-0.485348	0.823711	1.68591	1.53946	2.17261	-0.294473	0.763837	1.49825	1.6945
1.82	-0.367538	-0.0214765	-0.0750948	-0.290464	0.943893	-0.56229	1.11546	-0.100813	0.103825	1.16947	0.213042	-0.405811	-0.019656	1.06904	-0.186018	0.165659	1.19773	0.257704	-0.484893	-0.019656	-0.453247	-0.00599578	0.0671365	2.27066	-0.504731	0.854212	1.68805	1.53382	2.19852	-0.320098	0.77628	1.51044	1.69128
1.83	-0.359481	-0.0246854	-0.073689	-0.282537	0.96208	-0.56203	1.06436	-0.105192	0.090438	1.11062	0.192935	-0.400225	-0.019656	1.0185	-0.196439	0.150419	1.13579	0.242906	-0.475903	-0.019656	-0.432477	-0.000348387	0.0645558	2.29844	-0.530767	0.881083	1.69924	1.53297	2.21862	-0.351969	0.789462	1.53314	1.69211
